<svg width="40" height="40" viewBox="0 0 40 40" fill="none" xmlns="http://www.w3.org/2000/svg">
<path d="M37.0043 33.1034H2.9957C1.34117 33.1034 0 31.7622 0 30.1077V9.89219C0 8.23773 1.34117 6.89648 2.9957 6.89648H37.0043C38.6587 6.89648 40 8.23766 40 9.89219V30.1077C40 31.7622 38.6588 33.1034 37.0043 33.1034Z" fill="#F5F5F5"/>
<path d="M19.0938 28.1674C19.4753 27.8824 19.8069 27.7892 20.3198 27.696C20.833 27.6028 21.375 27.4438 21.6592 27.3671C21.9459 27.2877 20.6961 27.7453 20.3777 27.8358C20.0647 27.9316 19.0938 28.1674 19.0938 28.1674Z" fill="#73AF00"/>
<path d="M21.1589 27.365C21.0562 26.7203 21.3114 26.0416 21.8955 25.7705C22.0324 26.2389 21.614 27.0335 21.1589 27.365Z" fill="#73AF00"/>
<path d="M22.1578 27.0312C21.8446 26.4918 22.3709 25.7997 22.7629 25.4629C22.9445 25.7866 22.626 26.7522 22.1578 27.0312Z" fill="#73AF00"/>
<path d="M23.0768 26.6153C22.7452 26.1548 23.14 25.3496 23.561 25.0312C23.7241 25.4866 23.5609 26.3021 23.0768 26.6153Z" fill="#73AF00"/>
<path d="M23.9949 26.0365C23.6897 25.6023 23.9029 24.9287 24.3422 24.4893C24.6554 24.8525 24.3869 25.6366 23.9949 26.0365Z" fill="#73AF00"/>
<path d="M24.7368 25.4575C24.4815 25.0469 24.7945 24.0656 25.2051 23.7944C25.3813 24.1576 25.2497 25.1839 24.7368 25.4575Z" fill="#73AF00"/>
<path d="M25.3241 25.3022C25.2504 24.7154 26.2766 24.0654 26.695 24.0839C26.6503 24.5626 26.2108 25.0889 25.3241 25.3022Z" fill="#73AF00"/>
<path d="M24.75 25.9652C25.2342 25.4706 26.1684 25.4706 26.4998 25.5731C26.413 25.8627 25.308 26.4916 24.75 25.9652Z" fill="#73AF00"/>
<path d="M24.0859 26.4627C24.7648 26.281 25.2042 26.1337 25.6095 26.5546C25.3227 26.9178 24.2228 26.81 24.0859 26.4627Z" fill="#73AF00"/>
<path d="M23.1173 26.902C23.7673 26.5546 24.554 27.0677 24.6724 27.365C23.9488 27.6675 23.1041 26.9782 23.1173 26.902Z" fill="#73AF00"/>
<path d="M22.2266 27.3992C22.8186 27.1728 23.4975 27.4728 23.7659 27.8044C23.4502 27.9571 22.6239 28.1228 22.2266 27.3992Z" fill="#73AF00"/>
<path d="M21.418 27.6546C22.0969 27.5784 22.7466 28.094 22.8888 28.3861C22.0256 28.4703 21.6915 28.2099 21.418 27.6546Z" fill="#73AF00"/>
<path d="M21.2001 28.1674C20.8238 27.8824 20.4923 27.7892 19.9792 27.696C19.466 27.6028 18.924 27.4438 18.6347 27.3671C18.3532 27.2877 19.6029 27.7453 19.9213 27.8358C20.237 27.9316 21.2001 28.1674 21.2001 28.1674Z" fill="#73AF00"/>
<path d="M19.1325 27.365C19.2402 26.7203 18.985 26.0416 18.3957 25.7705C18.2641 26.2389 18.6825 27.0335 19.1325 27.365Z" fill="#73AF00"/>
<path d="M18.1413 27.0312C18.4598 26.4918 17.9282 25.7997 17.5362 25.4629C17.3545 25.7866 17.6731 26.7522 18.1413 27.0312Z" fill="#73AF00"/>
<path d="M17.2172 26.6153C17.554 26.1548 17.1592 25.3496 16.7382 25.0312C16.5725 25.4866 16.7383 26.3021 17.2172 26.6153Z" fill="#73AF00"/>
<path d="M16.2983 26.0365C16.6009 25.6023 16.3905 24.9287 15.9537 24.4893C15.6406 24.8525 15.909 25.6366 16.2983 26.0365Z" fill="#73AF00"/>
<path d="M15.5643 25.4575C15.8248 25.0469 15.5064 24.0656 15.0959 23.7944C14.9143 24.1576 15.0511 25.1839 15.5643 25.4575Z" fill="#73AF00"/>
<path d="M14.9712 25.3022C15.0502 24.7154 14.0239 24.0654 13.6055 24.0839C13.6502 24.5626 14.0819 25.0889 14.9712 25.3022Z" fill="#73AF00"/>
<path d="M15.5505 25.9652C15.0663 25.4706 14.1323 25.4706 13.8008 25.5731C13.8927 25.8627 14.9926 26.4916 15.5505 25.9652Z" fill="#73AF00"/>
<path d="M16.2149 26.4627C15.536 26.281 15.0966 26.1337 14.6914 26.5546C14.973 26.9178 16.078 26.81 16.2149 26.4627Z" fill="#73AF00"/>
<path d="M17.1748 26.902C16.5276 26.5546 15.7434 27.0677 15.625 27.365C16.3487 27.6675 17.188 26.9782 17.1748 26.902Z" fill="#73AF00"/>
<path d="M18.0613 27.3992C17.472 27.1728 16.7957 27.4728 16.5273 27.8044C16.8457 27.9571 17.672 28.1228 18.0613 27.3992Z" fill="#73AF00"/>
<path d="M18.8836 27.6546C18.1995 27.5784 17.5496 28.094 17.4102 28.3861C18.2784 28.4703 18.61 28.2099 18.8836 27.6546Z" fill="#73AF00"/>
<path d="M11.559 17.9057C11.559 17.9057 11.3706 18.1515 11.6906 18.774C12.0107 19.3965 11.7808 20.1149 12.1256 20.3448C12.4705 20.5747 12.1401 21.0306 12.5352 21.3342C12.9302 21.6378 13.9684 22.3366 14.6849 22.4183C15.4015 22.4999 16.0976 21.776 16.511 22.3103C16.9245 22.8447 16.8342 23.2213 17.2242 23.2629C17.6142 23.3045 17.6142 23.1321 17.5855 22.8735C17.5568 22.6149 17.8441 21.8965 18.505 21.8965C19.166 21.8965 19.8661 21.8178 20.9816 21.3974C22.0971 20.9769 22.643 20.7758 22.7867 20.1149C22.9303 19.4539 23.3389 18.6725 24.126 19.0346C24.9131 19.3965 24.8602 19.2267 25.1021 19.053C25.3441 18.8792 26.1554 19.3818 26.3389 19.1162C26.5223 18.8505 24.9031 17.5362 24.9944 16.8428C25.0855 16.1494 25.3039 15.5735 25.9706 15.5166C26.6373 15.4597 26.4649 14.7126 27.1546 14.339C27.8442 13.9655 28.1619 13.9227 28.7071 13.3693C29.2522 12.816 30.6859 11.6958 30.6859 11.6958C30.6859 11.6958 27.8967 13.0315 27.3389 13.1536C26.7811 13.2758 26.5509 14.0804 24.9992 14.5114C23.4474 14.9424 23.3612 15.1149 22.1831 15.3735C21.1221 15.6064 18.7253 15.5281 17.3074 15.0732C17.1119 15.0105 16.9176 15.1649 16.9349 15.3696C16.9933 16.0587 16.977 17.2978 16.1399 17.49C16.1399 17.49 14.9991 16.638 14.2807 17.0115C13.5624 17.385 13.0514 18.7173 12.5167 18.5109C11.9819 18.3045 11.9119 17.4494 11.559 17.9057Z" fill="#FFC850"/>
</svg>
