<svg width="56" height="56" viewBox="0 0 56 56" fill="none" xmlns="http://www.w3.org/2000/svg">
<g clip-path="url(#clip0_1144_6433)">
<path d="M35.1297 54.5562H31.5641L31.0281 50.028C30.9406 49.2624 30.5687 48.5843 30.0219 48.103C29.475 47.6218 28.7641 47.3374 27.9984 47.3374C26.4562 47.3374 25.1547 48.4968 24.9688 50.028L24.4328 54.5562H20.8672L22.5734 40.1187H33.4125L35.1297 54.5562Z" fill="url(#paint0_linear_1144_6433)"/>
<path d="M35.1297 54.5562H31.5641L31.0281 50.028C30.9406 49.2624 30.5687 48.5843 30.0219 48.103C29.475 47.6218 28.7641 47.3374 27.9984 47.3374C26.4562 47.3374 25.1547 48.4968 24.9688 50.028L24.4328 54.5562H20.8672L22.5734 40.1187H33.4125L35.1297 54.5562Z" fill="url(#paint1_linear_1144_6433)"/>
<path d="M35.1297 54.5562H31.5641L31.0281 50.028C30.9406 49.2624 30.5687 48.5843 30.0219 48.103C29.475 47.6218 28.7641 47.3374 27.9984 47.3374C26.4562 47.3374 25.1547 48.4968 24.9688 50.028L24.4328 54.5562H20.8672L22.5734 40.1187H33.4125L35.1297 54.5562Z" fill="url(#paint2_linear_1144_6433)"/>
<path d="M35.1297 54.5562H31.5641L31.0281 50.028C30.9406 49.2624 30.5687 48.5843 30.0219 48.103C29.475 47.6218 28.7641 47.3374 27.9984 47.3374C26.4562 47.3374 25.1547 48.4968 24.9688 50.028L24.4328 54.5562H20.8672L22.5734 40.1187H33.4125L35.1297 54.5562Z" fill="url(#paint3_linear_1144_6433)"/>
<path d="M2.31875 5.52344H53.6812C54.9609 5.52344 56 6.5625 56 7.84219V40.9609C56 42.2406 54.9609 43.2797 53.6812 43.2797H2.31875C1.03906 43.2688 0 42.2406 0 40.95V7.84219C0 6.5625 1.03906 5.52344 2.31875 5.52344Z" fill="url(#paint4_linear_1144_6433)"/>
<path d="M0 27.8578V40.9609C0 42.2406 1.03906 43.2797 2.31875 43.2797H53.6812C54.9609 43.2797 56 42.2406 56 40.9609V27.8578H0Z" fill="url(#paint5_linear_1144_6433)"/>
<path d="M53.6828 5.52344H29.2812V43.2797H53.6828C54.9625 43.2797 56.0016 42.2406 56.0016 40.9609V7.84219C56.0016 6.5625 54.9625 5.52344 53.6828 5.52344Z" fill="url(#paint6_linear_1144_6433)"/>
<path d="M53.6797 5.52344H38.75V12.6437H55.9984V7.84219C55.9984 6.5625 54.9594 5.52344 53.6797 5.52344Z" fill="url(#paint7_linear_1144_6433)"/>
<path d="M3.52188 8.19214H52.4781C52.9156 8.19214 53.2656 8.54214 53.2656 8.97964V35.9296C53.2656 36.3671 52.9156 36.7171 52.4781 36.7171H3.52188C3.08438 36.7171 2.73438 36.3671 2.73438 35.9296V8.97964C2.73438 8.54214 3.08438 8.19214 3.52188 8.19214Z" fill="url(#paint8_linear_1144_6433)"/>
<path d="M52.4781 8.19214H26.6328V32.55L30.7891 36.7062H52.4781C52.9156 36.7062 53.2656 36.3562 53.2656 35.9187V8.97964C53.2656 8.54214 52.9156 8.19214 52.4781 8.19214Z" fill="url(#paint9_linear_1144_6433)"/>
<path d="M52.4781 8.19214H3.52188C3.08438 8.19214 2.73438 8.54214 2.73438 8.97964V21.9296H53.2656V8.97964C53.2656 8.54214 52.9156 8.19214 52.4781 8.19214Z" fill="url(#paint10_linear_1144_6433)"/>
<path d="M20.2039 18.3093L19.0445 19.4687L13.3789 13.8031C12.7227 13.1468 11.8477 12.7859 10.918 12.7859H7.85547C8.11797 12.2718 8.12891 11.6703 7.88828 11.1453H10.907C12.2742 11.1453 13.5648 11.6812 14.5273 12.6437L20.2039 18.3093Z" fill="url(#paint11_linear_1144_6433)"/>
<path d="M6.16953 13.8249C7.21456 13.8249 8.06172 12.9777 8.06172 11.9327C8.06172 10.8877 7.21456 10.0405 6.16953 10.0405C5.12451 10.0405 4.27734 10.8877 4.27734 11.9327C4.27734 12.9777 5.12451 13.8249 6.16953 13.8249Z" fill="url(#paint12_linear_1144_6433)"/>
<path d="M22.7633 26.9609L17.0977 32.6265C16.1352 33.589 14.8445 34.125 13.4773 34.125H10.4586C10.6992 33.6 10.6883 32.9984 10.4258 32.4843H13.4773C14.407 32.4843 15.282 32.1234 15.9383 31.4671L21.6039 25.8015L22.7633 26.9609Z" fill="url(#paint13_linear_1144_6433)"/>
<path d="M8.73984 35.2297C9.78487 35.2297 10.632 34.3825 10.632 33.3375C10.632 32.2925 9.78487 31.4453 8.73984 31.4453C7.69482 31.4453 6.84766 32.2925 6.84766 33.3375C6.84766 34.3825 7.69482 35.2297 8.73984 35.2297Z" fill="url(#paint14_linear_1144_6433)"/>
<path d="M21.5359 20.8796V22.6953H11.5391C11.8453 22.1265 11.8453 21.4375 11.5391 20.8796H21.5359Z" fill="url(#paint15_linear_1144_6433)"/>
<path d="M9.9 23.6796C10.945 23.6796 11.7922 22.8325 11.7922 21.7875C11.7922 20.7424 10.945 19.8953 9.9 19.8953C8.85497 19.8953 8.00781 20.7424 8.00781 21.7875C8.00781 22.8325 8.85497 23.6796 9.9 23.6796Z" fill="url(#paint16_linear_1144_6433)"/>
<path d="M35.7969 18.3093L36.9563 19.4687L42.6219 13.8031C43.2781 13.1468 44.1531 12.7859 45.0828 12.7859H48.1344C47.8719 12.2718 47.8609 11.6703 48.1016 11.1453H45.0828C43.7156 11.1453 42.425 11.6812 41.4625 12.6437L35.7969 18.3093Z" fill="url(#paint17_linear_1144_6433)"/>
<path d="M49.8297 13.8249C50.8747 13.8249 51.7219 12.9777 51.7219 11.9327C51.7219 10.8877 50.8747 10.0405 49.8297 10.0405C48.7847 10.0405 47.9375 10.8877 47.9375 11.9327C47.9375 12.9777 48.7847 13.8249 49.8297 13.8249Z" fill="url(#paint18_linear_1144_6433)"/>
<path d="M33.2383 26.9609L38.9039 32.6265C39.8664 33.589 41.157 34.125 42.5242 34.125H45.543C45.3023 33.6 45.3133 32.9984 45.5758 32.4843H42.5242C41.5945 32.4843 40.7195 32.1234 40.0633 31.4671L34.3977 25.8015L33.2383 26.9609Z" fill="url(#paint19_linear_1144_6433)"/>
<path d="M47.2594 35.2297C48.3044 35.2297 49.1516 34.3825 49.1516 33.3375C49.1516 32.2925 48.3044 31.4453 47.2594 31.4453C46.2144 31.4453 45.3672 32.2925 45.3672 33.3375C45.3672 34.3825 46.2144 35.2297 47.2594 35.2297Z" fill="url(#paint20_linear_1144_6433)"/>
<path d="M34.4648 20.8796V22.6953H44.4617C44.1555 22.1265 44.1555 21.4375 44.4617 20.8796H34.4648Z" fill="url(#paint21_linear_1144_6433)"/>
<path d="M46.1031 23.6796C47.1481 23.6796 47.9953 22.8325 47.9953 21.7875C47.9953 20.7424 47.1481 19.8953 46.1031 19.8953C45.0581 19.8953 44.2109 20.7424 44.2109 21.7875C44.2109 22.8325 45.0581 23.6796 46.1031 23.6796Z" fill="url(#paint22_linear_1144_6433)"/>
<path d="M21.6781 8.19214H3.52188C3.08438 8.19214 2.73438 8.54214 2.73438 8.97964V35.9296C2.73438 36.3671 3.08438 36.7171 3.52188 36.7171H21.6781V8.19214Z" fill="url(#paint23_linear_1144_6433)"/>
<path d="M26.6008 0.470264C24.5773 1.97964 20.432 4.48433 14.6898 4.98745C13.5305 5.08589 12.6445 6.04839 12.6445 7.20776V12.8734C12.6445 18.8234 15.4883 24.4125 20.3008 27.9234L26.6445 32.55C27.4648 33.1406 28.5695 33.1406 29.3898 32.55L35.7336 27.9234C40.5461 24.4234 43.3898 18.8234 43.3898 12.8734V7.20776C43.3898 6.04839 42.493 5.08589 41.3445 4.98745C35.5695 4.48433 31.4242 1.97964 29.4008 0.470264C28.5695 -0.153174 27.432 -0.153174 26.6008 0.470264Z" fill="url(#paint24_linear_1144_6433)"/>
<path d="M12.6328 9.12183V12.8843C12.6328 18.8343 15.4766 24.4234 20.2891 27.9343L26.6328 32.5609C27.4531 33.1515 28.5578 33.1515 29.3781 32.5609L35.7219 27.9343C40.5344 24.4343 43.3781 18.8343 43.3781 12.8843V9.12183C43.3672 9.12183 12.6328 9.12183 12.6328 9.12183Z" fill="url(#paint25_linear_1144_6433)"/>
<path d="M43.3664 9.12183V12.8843C43.3664 18.8343 40.5227 24.4234 35.7102 27.9343L29.3664 32.5609C28.5461 33.1515 27.4414 33.1515 26.6211 32.5609L20.2773 27.9343C15.4648 24.4343 12.6211 18.8343 12.6211 12.8843V9.12183H43.3664Z" fill="url(#paint26_linear_1144_6433)"/>
<path d="M41.3102 4.98745C35.568 4.48433 31.4227 1.97964 29.3992 0.470264C28.568 -0.153174 27.4305 -0.153174 26.5992 0.470264C26.2602 0.721826 25.8664 1.0062 25.418 1.29058V31.664L26.632 32.55C27.4523 33.1406 28.557 33.1406 29.3773 32.55L35.7211 27.9234C40.5336 24.4234 43.3773 18.8234 43.3773 12.8734V7.20776C43.3664 6.04839 42.4695 5.08589 41.3102 4.98745Z" fill="url(#paint27_linear_1144_6433)"/>
<path d="M21.7773 25.889C17.632 22.8702 15.1602 18.003 15.1602 12.8843V8.4874C15.1602 7.91865 15.5758 7.4374 16.1336 7.36084C21.2633 6.66084 25.1352 4.5499 27.3555 3.01865C27.7383 2.75615 28.2523 2.75615 28.6352 3.01865C30.8664 4.5499 34.7273 6.66084 39.857 7.36084C40.4148 7.4374 40.8305 7.91865 40.8305 8.4874V12.8843C40.8305 18.014 38.3586 22.8702 34.2133 25.889L28.657 29.9358C28.2633 30.2312 27.7164 30.2312 27.3227 29.9358L21.7773 25.889Z" fill="url(#paint28_linear_1144_6433)"/>
<path d="M29.5211 3.60928V29.3233L28.668 29.9468C28.2742 30.2421 27.7273 30.2421 27.3336 29.9468L21.7773 25.8999C17.632 22.8812 15.1602 18.014 15.1602 12.8952V8.4874C15.1602 7.91865 15.5758 7.4374 16.1336 7.36084C21.2633 6.66084 25.1352 4.5499 27.3555 3.01865C27.7383 2.75615 28.2523 2.75615 28.6352 3.01865C28.9086 3.21553 29.2039 3.40146 29.5211 3.60928Z" fill="url(#paint29_linear_1144_6433)"/>
<path d="M39.8687 7.36084C34.7391 6.66084 30.8672 4.5499 28.6469 3.01865C28.2641 2.75615 27.75 2.75615 27.3672 3.01865C25.1359 4.5499 21.275 6.66084 16.1453 7.36084C15.5875 7.4374 15.1719 7.91865 15.1719 8.4874V12.8843C15.1719 14.8858 15.5438 16.8437 16.2547 18.6593H39.7703C40.4703 16.8327 40.8531 14.8749 40.8531 12.8843V8.4874C40.8422 7.91865 40.4266 7.4374 39.8687 7.36084Z" fill="url(#paint30_linear_1144_6433)"/>
<path d="M16.1328 7.36084C21.2625 6.66084 25.1344 4.5499 27.3547 3.01865C27.7375 2.75615 28.2516 2.75615 28.6344 3.01865C30.8656 4.5499 34.7266 6.66084 39.8562 7.36084C40.4141 7.4374 40.8297 7.91865 40.8297 8.4874V12.8843C40.8297 14.8858 40.4578 16.8437 39.7469 18.6593H16.2312C15.5312 16.8327 15.1484 14.8749 15.1484 12.8843V8.4874C15.1594 7.91865 15.575 7.4374 16.1328 7.36084Z" fill="url(#paint31_linear_1144_6433)"/>
<path d="M40.3047 16.9639L31.1281 7.78735L30.5703 8.73892C31.1281 9.35142 31.4672 10.1717 31.4672 11.0686C31.4672 12.9827 29.9141 14.5358 28 14.5358C27.7375 14.5358 27.475 14.503 27.2344 14.4483L22.1484 23.1436L28.8313 29.8264L34.2344 25.8889C37.2422 23.6905 39.375 20.5077 40.3047 16.9639Z" fill="url(#paint32_linear_1144_6433)"/>
<path d="M27.9984 14.525C29.9133 14.525 31.4656 12.9726 31.4656 11.0578C31.4656 9.14289 29.9133 7.59058 27.9984 7.59058C26.0836 7.59058 24.5312 9.14289 24.5312 11.0578C24.5312 12.9726 26.0836 14.525 27.9984 14.525Z" fill="url(#paint33_linear_1144_6433)"/>
<path d="M27.9984 14.525C29.9133 14.525 31.4656 12.9726 31.4656 11.0578C31.4656 9.14289 29.9133 7.59058 27.9984 7.59058C26.0836 7.59058 24.5312 9.14289 24.5312 11.0578C24.5312 12.9726 26.0836 14.525 27.9984 14.525Z" fill="url(#paint34_linear_1144_6433)"/>
<path d="M27.9344 6.486C25.5281 6.52975 23.625 8.53131 23.625 10.9266V13.5954H24.6531V10.9157C24.6531 9.461 26.4797 7.55787 27.9344 7.52506C29.4328 7.49225 31.3469 9.38444 31.3469 10.8719V13.6063H32.375V10.8719C32.375 8.43287 30.3734 6.45319 27.9344 6.486Z" fill="url(#paint35_linear_1144_6433)"/>
<path d="M27.9437 7.24068C26.0406 7.2735 24.5312 9.06725 24.5312 11.211V13.5954H25.3406V10.9157C25.3406 9.461 26.4891 8.24693 27.9328 8.20318C29.4312 8.17037 30.6562 9.3735 30.6562 10.861V13.5954H31.4656V11.1563C31.4656 8.97975 29.8797 7.20787 27.9437 7.24068Z" fill="url(#paint36_linear_1144_6433)"/>
<path d="M28 6.48596V8.20315C29.4656 8.20315 30.6578 9.39534 30.6578 10.861V13.5953H32.375V10.861C32.375 8.45471 30.4172 6.48596 28 6.48596Z" fill="url(#paint37_linear_1144_6433)"/>
<path d="M30.6586 10.861V13.5953H32.3758V10.861C32.3758 10.5766 32.343 10.3031 32.2992 10.0406H30.5273C30.6148 10.3031 30.6586 10.5766 30.6586 10.861Z" fill="url(#paint38_linear_1144_6433)"/>
<path d="M25.3422 10.9157C25.3422 10.6094 25.3969 10.3251 25.4844 10.0516H23.7125C23.6578 10.336 23.625 10.6313 23.625 10.9376V13.6063H25.3422V10.9157Z" fill="url(#paint39_linear_1144_6433)"/>
<path d="M23.3281 12.6438H32.6688C33.6313 12.6438 34.4188 13.4313 34.4188 14.3938V21.8532C34.4188 22.8157 33.6313 23.6032 32.6688 23.6032H23.3281C22.3656 23.6032 21.5781 22.8157 21.5781 21.8532V14.3938C21.5781 13.4204 22.3656 12.6438 23.3281 12.6438Z" fill="url(#paint40_linear_1144_6433)"/>
<path d="M27.9993 22.2689C27.004 22.2689 26.1837 21.4595 26.1837 20.4533V19.8298C25.2321 19.1736 24.7071 18.0798 24.7946 16.9205C24.9259 15.3564 26.1946 14.0986 27.7587 13.9892C27.8352 13.9892 27.9118 13.9783 27.9883 13.9783C29.7602 13.9783 31.193 15.422 31.193 17.183C31.193 18.2548 30.679 19.2283 29.793 19.8298V20.4533C29.8149 21.4486 28.9946 22.2689 27.9993 22.2689Z" fill="url(#paint41_linear_1144_6433)"/>
<path d="M21.5781 15.5532V21.8532C21.5781 22.8157 22.3656 23.6032 23.3281 23.6032H32.6688C33.6313 23.6032 34.4188 22.8157 34.4188 21.8532V15.5532H21.5781Z" fill="url(#paint42_linear_1144_6433)"/>
<path d="M32.668 12.6438H25.9414V23.6141H32.668C33.6305 23.6141 34.418 22.8266 34.418 21.8641V14.4047C34.418 13.4204 33.6305 12.6438 32.668 12.6438Z" fill="url(#paint43_linear_1144_6433)"/>
<path d="M30.1762 17.1828C30.1762 15.925 29.1152 14.9188 27.8355 15.0063C26.7746 15.0828 25.9105 15.936 25.823 16.9969C25.7574 17.85 26.184 18.6157 26.8402 19.0313C27.0699 19.1735 27.2012 19.436 27.2012 19.7094V20.4532C27.2012 20.8907 27.5512 21.2407 27.9887 21.2407C28.4262 21.2407 28.7762 20.8907 28.7762 20.4532V19.7094C28.7762 19.436 28.9184 19.1735 29.148 19.0313C29.7715 18.6485 30.1762 17.9594 30.1762 17.1828Z" fill="url(#paint44_linear_1144_6433)"/>
<path d="M30.1762 17.1828C30.1762 15.925 29.1152 14.9188 27.8355 15.0063C26.7746 15.0828 25.9105 15.936 25.823 16.9969C25.7574 17.85 26.184 18.6157 26.8402 19.0313C27.0699 19.1735 27.2012 19.436 27.2012 19.7094V20.4532C27.2012 20.8907 27.5512 21.2407 27.9887 21.2407C28.4262 21.2407 28.7762 20.8907 28.7762 20.4532V19.7094C28.7762 19.436 28.9184 19.1735 29.148 19.0313C29.7715 18.6485 30.1762 17.9594 30.1762 17.1828Z" fill="url(#paint45_linear_1144_6433)"/>
<path d="M30.1762 17.1828C30.1762 15.925 29.1152 14.9188 27.8355 15.0063C26.7746 15.0828 25.9105 15.936 25.823 16.9969C25.7574 17.85 26.184 18.6157 26.8402 19.0313C27.0699 19.1735 27.2012 19.436 27.2012 19.7094V20.4532C27.2012 20.8907 27.5512 21.2407 27.9887 21.2407C28.4262 21.2407 28.7762 20.8907 28.7762 20.4532V19.7094C28.7762 19.436 28.9184 19.1735 29.148 19.0313C29.7715 18.6485 30.1762 17.9594 30.1762 17.1828Z" fill="url(#paint46_linear_1144_6433)"/>
<path d="M30.1762 17.1828C30.1762 15.925 29.1152 14.9188 27.8355 15.0063C26.7746 15.0828 25.9105 15.936 25.823 16.9969C25.7574 17.85 26.184 18.6157 26.8402 19.0313C27.0699 19.1735 27.2012 19.436 27.2012 19.7094V20.4532C27.2012 20.8907 27.5512 21.2407 27.9887 21.2407C28.4262 21.2407 28.7762 20.8907 28.7762 20.4532V19.7094C28.7762 19.436 28.9184 19.1735 29.148 19.0313C29.7715 18.6485 30.1762 17.9594 30.1762 17.1828Z" fill="url(#paint47_linear_1144_6433)"/>
<path d="M20.575 52.2375H35.4281C36.6859 52.2375 37.7031 53.2547 37.7031 54.5125C37.7031 55.3329 37.0359 56 36.2156 56H19.7766C18.9563 56 18.2891 55.3329 18.2891 54.5125C18.2891 53.2547 19.3172 52.2375 20.575 52.2375Z" fill="url(#paint48_linear_1144_6433)"/>
</g>
<defs>
<linearGradient id="paint0_linear_1144_6433" x1="21.99" y1="44.8258" x2="34.6212" y2="50.9855" gradientUnits="userSpaceOnUse">
<stop stop-color="#5A5A5A"/>
<stop offset="0.4248" stop-color="#555555"/>
<stop offset="0.8643" stop-color="#494949"/>
<stop offset="1" stop-color="#444444"/>
</linearGradient>
<linearGradient id="paint1_linear_1144_6433" x1="28.2638" y1="47.339" x2="35.2188" y2="47.339" gradientUnits="userSpaceOnUse">
<stop stop-color="#464646" stop-opacity="0"/>
<stop offset="0.6727" stop-color="#252529" stop-opacity="0.463"/>
<stop offset="1" stop-color="#000009"/>
</linearGradient>
<linearGradient id="paint2_linear_1144_6433" x1="28.3609" y1="50.1658" x2="28.9847" y2="42.6027" gradientUnits="userSpaceOnUse">
<stop stop-color="#464646" stop-opacity="0"/>
<stop offset="0.6727" stop-color="#252529" stop-opacity="0.463"/>
<stop offset="1" stop-color="#000009"/>
</linearGradient>
<linearGradient id="paint3_linear_1144_6433" x1="27.9984" y1="49.4536" x2="27.9984" y2="53.52" gradientUnits="userSpaceOnUse">
<stop stop-color="#464646" stop-opacity="0"/>
<stop offset="0.6727" stop-color="#252529" stop-opacity="0.463"/>
<stop offset="1" stop-color="#000009"/>
</linearGradient>
<linearGradient id="paint4_linear_1144_6433" x1="23.34" y1="5.7563" x2="33.0083" y2="44.4297" gradientUnits="userSpaceOnUse">
<stop stop-color="#5A5A5A"/>
<stop offset="0.4248" stop-color="#555555"/>
<stop offset="0.8643" stop-color="#494949"/>
<stop offset="1" stop-color="#444444"/>
</linearGradient>
<linearGradient id="paint5_linear_1144_6433" x1="28" y1="37.0191" x2="28" y2="43.7245" gradientUnits="userSpaceOnUse">
<stop stop-color="#464646" stop-opacity="0"/>
<stop offset="0.6727" stop-color="#252529" stop-opacity="0.463"/>
<stop offset="1" stop-color="#000009"/>
</linearGradient>
<linearGradient id="paint6_linear_1144_6433" x1="48.7731" y1="24.3966" x2="56.7398" y2="24.3966" gradientUnits="userSpaceOnUse">
<stop stop-color="#464646" stop-opacity="0"/>
<stop offset="0.6727" stop-color="#252529" stop-opacity="0.463"/>
<stop offset="1" stop-color="#000009"/>
</linearGradient>
<linearGradient id="paint7_linear_1144_6433" x1="48.2501" y1="9.07889" x2="41.8566" y2="9.07889" gradientUnits="userSpaceOnUse">
<stop stop-color="#464646" stop-opacity="0"/>
<stop offset="0.6727" stop-color="#252529" stop-opacity="0.463"/>
<stop offset="1" stop-color="#000009"/>
</linearGradient>
<linearGradient id="paint8_linear_1144_6433" x1="22.1487" y1="7.48787" x2="35.8715" y2="42.5745" gradientUnits="userSpaceOnUse">
<stop stop-color="#FEF0AE"/>
<stop offset="0.1479" stop-color="#FEEFA9"/>
<stop offset="0.3013" stop-color="#FEEF9D"/>
<stop offset="0.4571" stop-color="#FEEE88"/>
<stop offset="0.6148" stop-color="#FEED6B"/>
<stop offset="0.7738" stop-color="#FEEB46"/>
<stop offset="0.9317" stop-color="#FEE918"/>
<stop offset="1" stop-color="#FEE903"/>
</linearGradient>
<linearGradient id="paint9_linear_1144_6433" x1="45.9651" y1="24.7818" x2="31.1117" y2="16.595" gradientUnits="userSpaceOnUse">
<stop stop-color="#FE9038" stop-opacity="0"/>
<stop offset="0.1207" stop-color="#FE9038" stop-opacity="0.016"/>
<stop offset="0.2459" stop-color="#FE9038" stop-opacity="0.065"/>
<stop offset="0.3731" stop-color="#FE9038" stop-opacity="0.147"/>
<stop offset="0.5018" stop-color="#FE9038" stop-opacity="0.262"/>
<stop offset="0.6317" stop-color="#FE9038" stop-opacity="0.41"/>
<stop offset="0.7625" stop-color="#FE9038" stop-opacity="0.59"/>
<stop offset="0.8916" stop-color="#FE9038" stop-opacity="0.8"/>
<stop offset="1" stop-color="#FE9038"/>
</linearGradient>
<linearGradient id="paint10_linear_1144_6433" x1="28" y1="12.3415" x2="28" y2="7.17419" gradientUnits="userSpaceOnUse">
<stop stop-color="#FE9038" stop-opacity="0"/>
<stop offset="0.1207" stop-color="#FE9038" stop-opacity="0.016"/>
<stop offset="0.2459" stop-color="#FE9038" stop-opacity="0.065"/>
<stop offset="0.3731" stop-color="#FE9038" stop-opacity="0.147"/>
<stop offset="0.5018" stop-color="#FE9038" stop-opacity="0.262"/>
<stop offset="0.6317" stop-color="#FE9038" stop-opacity="0.41"/>
<stop offset="0.7625" stop-color="#FE9038" stop-opacity="0.59"/>
<stop offset="0.8916" stop-color="#FE9038" stop-opacity="0.8"/>
<stop offset="1" stop-color="#FE9038"/>
</linearGradient>
<linearGradient id="paint11_linear_1144_6433" x1="14.0318" y1="15.7445" x2="14.0318" y2="11.0177" gradientUnits="userSpaceOnUse">
<stop stop-color="white" stop-opacity="0"/>
<stop offset="0.1205" stop-color="white" stop-opacity="0.016"/>
<stop offset="0.2454" stop-color="white" stop-opacity="0.065"/>
<stop offset="0.3724" stop-color="white" stop-opacity="0.147"/>
<stop offset="0.5008" stop-color="white" stop-opacity="0.261"/>
<stop offset="0.6304" stop-color="white" stop-opacity="0.408"/>
<stop offset="0.761" stop-color="white" stop-opacity="0.588"/>
<stop offset="0.8898" stop-color="white" stop-opacity="0.797"/>
<stop offset="1" stop-color="white"/>
</linearGradient>
<linearGradient id="paint12_linear_1144_6433" x1="9.77147" y1="15.5284" x2="5.14261" y2="10.8994" gradientUnits="userSpaceOnUse">
<stop stop-color="white" stop-opacity="0"/>
<stop offset="0.1205" stop-color="white" stop-opacity="0.016"/>
<stop offset="0.2454" stop-color="white" stop-opacity="0.065"/>
<stop offset="0.3724" stop-color="white" stop-opacity="0.147"/>
<stop offset="0.5008" stop-color="white" stop-opacity="0.261"/>
<stop offset="0.6304" stop-color="white" stop-opacity="0.408"/>
<stop offset="0.761" stop-color="white" stop-opacity="0.588"/>
<stop offset="0.8898" stop-color="white" stop-opacity="0.797"/>
<stop offset="1" stop-color="white"/>
</linearGradient>
<linearGradient id="paint13_linear_1144_6433" x1="18.4558" y1="34.9674" x2="16.2206" y2="29.6135" gradientUnits="userSpaceOnUse">
<stop stop-color="white" stop-opacity="0"/>
<stop offset="0.1205" stop-color="white" stop-opacity="0.016"/>
<stop offset="0.2454" stop-color="white" stop-opacity="0.065"/>
<stop offset="0.3724" stop-color="white" stop-opacity="0.147"/>
<stop offset="0.5008" stop-color="white" stop-opacity="0.261"/>
<stop offset="0.6304" stop-color="white" stop-opacity="0.408"/>
<stop offset="0.761" stop-color="white" stop-opacity="0.588"/>
<stop offset="0.8898" stop-color="white" stop-opacity="0.797"/>
<stop offset="1" stop-color="white"/>
</linearGradient>
<linearGradient id="paint14_linear_1144_6433" x1="11.4976" y1="36.1018" x2="7.43784" y2="32.0421" gradientUnits="userSpaceOnUse">
<stop stop-color="white" stop-opacity="0"/>
<stop offset="0.1205" stop-color="white" stop-opacity="0.016"/>
<stop offset="0.2454" stop-color="white" stop-opacity="0.065"/>
<stop offset="0.3724" stop-color="white" stop-opacity="0.147"/>
<stop offset="0.5008" stop-color="white" stop-opacity="0.261"/>
<stop offset="0.6304" stop-color="white" stop-opacity="0.408"/>
<stop offset="0.761" stop-color="white" stop-opacity="0.588"/>
<stop offset="0.8898" stop-color="white" stop-opacity="0.797"/>
<stop offset="1" stop-color="white"/>
</linearGradient>
<linearGradient id="paint15_linear_1144_6433" x1="16.5448" y1="24.1133" x2="16.5448" y2="20.9425" gradientUnits="userSpaceOnUse">
<stop stop-color="white" stop-opacity="0"/>
<stop offset="0.1205" stop-color="white" stop-opacity="0.016"/>
<stop offset="0.2454" stop-color="white" stop-opacity="0.065"/>
<stop offset="0.3724" stop-color="white" stop-opacity="0.147"/>
<stop offset="0.5008" stop-color="white" stop-opacity="0.261"/>
<stop offset="0.6304" stop-color="white" stop-opacity="0.408"/>
<stop offset="0.761" stop-color="white" stop-opacity="0.588"/>
<stop offset="0.8898" stop-color="white" stop-opacity="0.797"/>
<stop offset="1" stop-color="white"/>
</linearGradient>
<linearGradient id="paint16_linear_1144_6433" x1="13.7745" y1="25.6648" x2="8.55042" y2="20.4407" gradientUnits="userSpaceOnUse">
<stop stop-color="white" stop-opacity="0"/>
<stop offset="0.1205" stop-color="white" stop-opacity="0.016"/>
<stop offset="0.2454" stop-color="white" stop-opacity="0.065"/>
<stop offset="0.3724" stop-color="white" stop-opacity="0.147"/>
<stop offset="0.5008" stop-color="white" stop-opacity="0.261"/>
<stop offset="0.6304" stop-color="white" stop-opacity="0.408"/>
<stop offset="0.761" stop-color="white" stop-opacity="0.588"/>
<stop offset="0.8898" stop-color="white" stop-opacity="0.797"/>
<stop offset="1" stop-color="white"/>
</linearGradient>
<linearGradient id="paint17_linear_1144_6433" x1="41.969" y1="15.7445" x2="41.969" y2="11.0177" gradientUnits="userSpaceOnUse">
<stop stop-color="white" stop-opacity="0"/>
<stop offset="0.1205" stop-color="white" stop-opacity="0.016"/>
<stop offset="0.2454" stop-color="white" stop-opacity="0.065"/>
<stop offset="0.3724" stop-color="white" stop-opacity="0.147"/>
<stop offset="0.5008" stop-color="white" stop-opacity="0.261"/>
<stop offset="0.6304" stop-color="white" stop-opacity="0.408"/>
<stop offset="0.761" stop-color="white" stop-opacity="0.588"/>
<stop offset="0.8898" stop-color="white" stop-opacity="0.797"/>
<stop offset="1" stop-color="white"/>
</linearGradient>
<linearGradient id="paint18_linear_1144_6433" x1="46.2277" y1="15.5284" x2="50.8566" y2="10.8994" gradientUnits="userSpaceOnUse">
<stop stop-color="white" stop-opacity="0"/>
<stop offset="0.1205" stop-color="white" stop-opacity="0.016"/>
<stop offset="0.2454" stop-color="white" stop-opacity="0.065"/>
<stop offset="0.3724" stop-color="white" stop-opacity="0.147"/>
<stop offset="0.5008" stop-color="white" stop-opacity="0.261"/>
<stop offset="0.6304" stop-color="white" stop-opacity="0.408"/>
<stop offset="0.761" stop-color="white" stop-opacity="0.588"/>
<stop offset="0.8898" stop-color="white" stop-opacity="0.797"/>
<stop offset="1" stop-color="white"/>
</linearGradient>
<linearGradient id="paint19_linear_1144_6433" x1="37.5458" y1="34.9674" x2="39.781" y2="29.6135" gradientUnits="userSpaceOnUse">
<stop stop-color="white" stop-opacity="0"/>
<stop offset="0.1205" stop-color="white" stop-opacity="0.016"/>
<stop offset="0.2454" stop-color="white" stop-opacity="0.065"/>
<stop offset="0.3724" stop-color="white" stop-opacity="0.147"/>
<stop offset="0.5008" stop-color="white" stop-opacity="0.261"/>
<stop offset="0.6304" stop-color="white" stop-opacity="0.408"/>
<stop offset="0.761" stop-color="white" stop-opacity="0.588"/>
<stop offset="0.8898" stop-color="white" stop-opacity="0.797"/>
<stop offset="1" stop-color="white"/>
</linearGradient>
<linearGradient id="paint20_linear_1144_6433" x1="44.5016" y1="36.1018" x2="48.5614" y2="32.0421" gradientUnits="userSpaceOnUse">
<stop stop-color="white" stop-opacity="0"/>
<stop offset="0.1205" stop-color="white" stop-opacity="0.016"/>
<stop offset="0.2454" stop-color="white" stop-opacity="0.065"/>
<stop offset="0.3724" stop-color="white" stop-opacity="0.147"/>
<stop offset="0.5008" stop-color="white" stop-opacity="0.261"/>
<stop offset="0.6304" stop-color="white" stop-opacity="0.408"/>
<stop offset="0.761" stop-color="white" stop-opacity="0.588"/>
<stop offset="0.8898" stop-color="white" stop-opacity="0.797"/>
<stop offset="1" stop-color="white"/>
</linearGradient>
<linearGradient id="paint21_linear_1144_6433" x1="39.4558" y1="24.1133" x2="39.4558" y2="20.9425" gradientUnits="userSpaceOnUse">
<stop stop-color="white" stop-opacity="0"/>
<stop offset="0.1205" stop-color="white" stop-opacity="0.016"/>
<stop offset="0.2454" stop-color="white" stop-opacity="0.065"/>
<stop offset="0.3724" stop-color="white" stop-opacity="0.147"/>
<stop offset="0.5008" stop-color="white" stop-opacity="0.261"/>
<stop offset="0.6304" stop-color="white" stop-opacity="0.408"/>
<stop offset="0.761" stop-color="white" stop-opacity="0.588"/>
<stop offset="0.8898" stop-color="white" stop-opacity="0.797"/>
<stop offset="1" stop-color="white"/>
</linearGradient>
<linearGradient id="paint22_linear_1144_6433" x1="42.2286" y1="25.6648" x2="47.4527" y2="20.4407" gradientUnits="userSpaceOnUse">
<stop stop-color="white" stop-opacity="0"/>
<stop offset="0.1205" stop-color="white" stop-opacity="0.016"/>
<stop offset="0.2454" stop-color="white" stop-opacity="0.065"/>
<stop offset="0.3724" stop-color="white" stop-opacity="0.147"/>
<stop offset="0.5008" stop-color="white" stop-opacity="0.261"/>
<stop offset="0.6304" stop-color="white" stop-opacity="0.408"/>
<stop offset="0.761" stop-color="white" stop-opacity="0.588"/>
<stop offset="0.8898" stop-color="white" stop-opacity="0.797"/>
<stop offset="1" stop-color="white"/>
</linearGradient>
<linearGradient id="paint23_linear_1144_6433" x1="7.87609" y1="22.4486" x2="1.42658" y2="22.4486" gradientUnits="userSpaceOnUse">
<stop stop-color="#FE9038" stop-opacity="0"/>
<stop offset="0.1207" stop-color="#FE9038" stop-opacity="0.016"/>
<stop offset="0.2459" stop-color="#FE9038" stop-opacity="0.065"/>
<stop offset="0.3731" stop-color="#FE9038" stop-opacity="0.147"/>
<stop offset="0.5018" stop-color="#FE9038" stop-opacity="0.262"/>
<stop offset="0.6317" stop-color="#FE9038" stop-opacity="0.41"/>
<stop offset="0.7625" stop-color="#FE9038" stop-opacity="0.59"/>
<stop offset="0.8916" stop-color="#FE9038" stop-opacity="0.8"/>
<stop offset="1" stop-color="#FE9038"/>
</linearGradient>
<linearGradient id="paint24_linear_1144_6433" x1="15.4232" y1="0.86467" x2="43.659" y2="29.1004" gradientUnits="userSpaceOnUse">
<stop stop-color="#B3DAFE"/>
<stop offset="0.2145" stop-color="#AED8FE"/>
<stop offset="0.4369" stop-color="#A2D2FE"/>
<stop offset="0.6628" stop-color="#8DCAFE"/>
<stop offset="0.8897" stop-color="#70BEFE"/>
<stop offset="1" stop-color="#60B7FF"/>
</linearGradient>
<linearGradient id="paint25_linear_1144_6433" x1="35.2483" y1="24.7987" x2="36.8679" y2="27.2582" gradientUnits="userSpaceOnUse">
<stop stop-color="#3692BC" stop-opacity="0"/>
<stop offset="0.1409" stop-color="#3692BC" stop-opacity="0.022"/>
<stop offset="0.287" stop-color="#3692BC" stop-opacity="0.088"/>
<stop offset="0.4355" stop-color="#3692BC" stop-opacity="0.199"/>
<stop offset="0.5856" stop-color="#3692BC" stop-opacity="0.354"/>
<stop offset="0.7371" stop-color="#3692BC" stop-opacity="0.553"/>
<stop offset="0.8874" stop-color="#3692BC" stop-opacity="0.793"/>
<stop offset="1" stop-color="#3692BC"/>
</linearGradient>
<linearGradient id="paint26_linear_1144_6433" x1="20.751" y1="24.7987" x2="19.1313" y2="27.2582" gradientUnits="userSpaceOnUse">
<stop stop-color="#3692BC" stop-opacity="0"/>
<stop offset="0.1409" stop-color="#3692BC" stop-opacity="0.022"/>
<stop offset="0.287" stop-color="#3692BC" stop-opacity="0.088"/>
<stop offset="0.4355" stop-color="#3692BC" stop-opacity="0.199"/>
<stop offset="0.5856" stop-color="#3692BC" stop-opacity="0.354"/>
<stop offset="0.7371" stop-color="#3692BC" stop-opacity="0.553"/>
<stop offset="0.8874" stop-color="#3692BC" stop-opacity="0.793"/>
<stop offset="1" stop-color="#3692BC"/>
</linearGradient>
<linearGradient id="paint27_linear_1144_6433" x1="40.4076" y1="16.4986" x2="43.4957" y2="16.4986" gradientUnits="userSpaceOnUse">
<stop stop-color="#3692BC" stop-opacity="0"/>
<stop offset="0.1409" stop-color="#3692BC" stop-opacity="0.022"/>
<stop offset="0.287" stop-color="#3692BC" stop-opacity="0.088"/>
<stop offset="0.4355" stop-color="#3692BC" stop-opacity="0.199"/>
<stop offset="0.5856" stop-color="#3692BC" stop-opacity="0.354"/>
<stop offset="0.7371" stop-color="#3692BC" stop-opacity="0.553"/>
<stop offset="0.8874" stop-color="#3692BC" stop-opacity="0.793"/>
<stop offset="1" stop-color="#3692BC"/>
</linearGradient>
<linearGradient id="paint28_linear_1144_6433" x1="8.43469" y1="-5.7844" x2="41.1484" y2="26.9294" gradientUnits="userSpaceOnUse">
<stop stop-color="#3692BC" stop-opacity="0"/>
<stop offset="0.1409" stop-color="#3692BC" stop-opacity="0.022"/>
<stop offset="0.287" stop-color="#3692BC" stop-opacity="0.088"/>
<stop offset="0.4355" stop-color="#3692BC" stop-opacity="0.199"/>
<stop offset="0.5856" stop-color="#3692BC" stop-opacity="0.354"/>
<stop offset="0.7371" stop-color="#3692BC" stop-opacity="0.553"/>
<stop offset="0.8874" stop-color="#3692BC" stop-opacity="0.793"/>
<stop offset="1" stop-color="#3692BC"/>
</linearGradient>
<linearGradient id="paint29_linear_1144_6433" x1="23.9924" y1="17.1601" x2="13.7343" y2="18.8697" gradientUnits="userSpaceOnUse">
<stop stop-color="#3692BC" stop-opacity="0"/>
<stop offset="0.1409" stop-color="#3692BC" stop-opacity="0.022"/>
<stop offset="0.287" stop-color="#3692BC" stop-opacity="0.088"/>
<stop offset="0.4355" stop-color="#3692BC" stop-opacity="0.199"/>
<stop offset="0.5856" stop-color="#3692BC" stop-opacity="0.354"/>
<stop offset="0.7371" stop-color="#3692BC" stop-opacity="0.553"/>
<stop offset="0.8874" stop-color="#3692BC" stop-opacity="0.793"/>
<stop offset="1" stop-color="#3692BC"/>
</linearGradient>
<linearGradient id="paint30_linear_1144_6433" x1="27.295" y1="10.1946" x2="24.6155" y2="3.15603" gradientUnits="userSpaceOnUse">
<stop stop-color="#3692BC" stop-opacity="0"/>
<stop offset="0.1409" stop-color="#3692BC" stop-opacity="0.022"/>
<stop offset="0.287" stop-color="#3692BC" stop-opacity="0.088"/>
<stop offset="0.4355" stop-color="#3692BC" stop-opacity="0.199"/>
<stop offset="0.5856" stop-color="#3692BC" stop-opacity="0.354"/>
<stop offset="0.7371" stop-color="#3692BC" stop-opacity="0.553"/>
<stop offset="0.8874" stop-color="#3692BC" stop-opacity="0.793"/>
<stop offset="1" stop-color="#3692BC"/>
</linearGradient>
<linearGradient id="paint31_linear_1144_6433" x1="28.7066" y1="10.1946" x2="31.386" y2="3.15603" gradientUnits="userSpaceOnUse">
<stop stop-color="#3692BC" stop-opacity="0"/>
<stop offset="0.1409" stop-color="#3692BC" stop-opacity="0.022"/>
<stop offset="0.287" stop-color="#3692BC" stop-opacity="0.088"/>
<stop offset="0.4355" stop-color="#3692BC" stop-opacity="0.199"/>
<stop offset="0.5856" stop-color="#3692BC" stop-opacity="0.354"/>
<stop offset="0.7371" stop-color="#3692BC" stop-opacity="0.553"/>
<stop offset="0.8874" stop-color="#3692BC" stop-opacity="0.793"/>
<stop offset="1" stop-color="#3692BC"/>
</linearGradient>
<linearGradient id="paint32_linear_1144_6433" x1="33.1847" y1="20.6301" x2="25.4396" y2="16.2117" gradientUnits="userSpaceOnUse">
<stop stop-color="#3692BC" stop-opacity="0"/>
<stop offset="0.1409" stop-color="#3692BC" stop-opacity="0.022"/>
<stop offset="0.287" stop-color="#3692BC" stop-opacity="0.088"/>
<stop offset="0.4355" stop-color="#3692BC" stop-opacity="0.199"/>
<stop offset="0.5856" stop-color="#3692BC" stop-opacity="0.354"/>
<stop offset="0.7371" stop-color="#3692BC" stop-opacity="0.553"/>
<stop offset="0.8874" stop-color="#3692BC" stop-opacity="0.793"/>
<stop offset="1" stop-color="#3692BC"/>
</linearGradient>
<linearGradient id="paint33_linear_1144_6433" x1="28.8875" y1="11.0549" x2="25.1839" y2="11.0549" gradientUnits="userSpaceOnUse">
<stop stop-color="#3692BC" stop-opacity="0"/>
<stop offset="0.1409" stop-color="#3692BC" stop-opacity="0.022"/>
<stop offset="0.287" stop-color="#3692BC" stop-opacity="0.088"/>
<stop offset="0.4355" stop-color="#3692BC" stop-opacity="0.199"/>
<stop offset="0.5856" stop-color="#3692BC" stop-opacity="0.354"/>
<stop offset="0.7371" stop-color="#3692BC" stop-opacity="0.553"/>
<stop offset="0.8874" stop-color="#3692BC" stop-opacity="0.793"/>
<stop offset="1" stop-color="#3692BC"/>
</linearGradient>
<linearGradient id="paint34_linear_1144_6433" x1="28.615" y1="12.1073" x2="26.3539" y2="8.24781" gradientUnits="userSpaceOnUse">
<stop stop-color="#3692BC" stop-opacity="0"/>
<stop offset="0.1409" stop-color="#3692BC" stop-opacity="0.022"/>
<stop offset="0.287" stop-color="#3692BC" stop-opacity="0.088"/>
<stop offset="0.4355" stop-color="#3692BC" stop-opacity="0.199"/>
<stop offset="0.5856" stop-color="#3692BC" stop-opacity="0.354"/>
<stop offset="0.7371" stop-color="#3692BC" stop-opacity="0.553"/>
<stop offset="0.8874" stop-color="#3692BC" stop-opacity="0.793"/>
<stop offset="1" stop-color="#3692BC"/>
</linearGradient>
<linearGradient id="paint35_linear_1144_6433" x1="24.8643" y1="6.15437" x2="30.3087" y2="15.6996" gradientUnits="userSpaceOnUse">
<stop stop-color="#EAF6FF"/>
<stop offset="0.2729" stop-color="#E5F1FB"/>
<stop offset="0.5557" stop-color="#D9E6EF"/>
<stop offset="0.8419" stop-color="#C4D2DC"/>
<stop offset="1" stop-color="#B6C4CF"/>
</linearGradient>
<linearGradient id="paint36_linear_1144_6433" x1="27.9984" y1="15.4648" x2="27.9984" y2="4.50423" gradientUnits="userSpaceOnUse">
<stop stop-color="#EAF6FF"/>
<stop offset="0.2729" stop-color="#E5F1FB"/>
<stop offset="0.5557" stop-color="#D9E6EF"/>
<stop offset="0.8419" stop-color="#C4D2DC"/>
<stop offset="1" stop-color="#B6C4CF"/>
</linearGradient>
<linearGradient id="paint37_linear_1144_6433" x1="31.2996" y1="10.0439" x2="32.867" y2="10.0439" gradientUnits="userSpaceOnUse">
<stop stop-color="#596C76" stop-opacity="0"/>
<stop offset="0.179" stop-color="#596C76" stop-opacity="0.035"/>
<stop offset="0.3646" stop-color="#596C76" stop-opacity="0.141"/>
<stop offset="0.5532" stop-color="#596C76" stop-opacity="0.316"/>
<stop offset="0.7438" stop-color="#596C76" stop-opacity="0.563"/>
<stop offset="0.9342" stop-color="#596C76" stop-opacity="0.876"/>
<stop offset="1" stop-color="#596C76"/>
</linearGradient>
<linearGradient id="paint38_linear_1144_6433" x1="31.4532" y1="11.8349" x2="31.4532" y2="13.7455" gradientUnits="userSpaceOnUse">
<stop stop-color="#596C76" stop-opacity="0"/>
<stop offset="0.179" stop-color="#596C76" stop-opacity="0.035"/>
<stop offset="0.3646" stop-color="#596C76" stop-opacity="0.141"/>
<stop offset="0.5532" stop-color="#596C76" stop-opacity="0.316"/>
<stop offset="0.7438" stop-color="#596C76" stop-opacity="0.563"/>
<stop offset="0.9342" stop-color="#596C76" stop-opacity="0.876"/>
<stop offset="1" stop-color="#596C76"/>
</linearGradient>
<linearGradient id="paint39_linear_1144_6433" x1="24.5539" y1="11.835" x2="24.5539" y2="13.7456" gradientUnits="userSpaceOnUse">
<stop stop-color="#596C76" stop-opacity="0"/>
<stop offset="0.179" stop-color="#596C76" stop-opacity="0.035"/>
<stop offset="0.3646" stop-color="#596C76" stop-opacity="0.141"/>
<stop offset="0.5532" stop-color="#596C76" stop-opacity="0.316"/>
<stop offset="0.7438" stop-color="#596C76" stop-opacity="0.563"/>
<stop offset="0.9342" stop-color="#596C76" stop-opacity="0.876"/>
<stop offset="1" stop-color="#596C76"/>
</linearGradient>
<linearGradient id="paint40_linear_1144_6433" x1="24.2613" y1="14.3845" x2="32.3972" y2="22.5205" gradientUnits="userSpaceOnUse">
<stop stop-color="#EAF6FF"/>
<stop offset="0.2729" stop-color="#E5F1FB"/>
<stop offset="0.5557" stop-color="#D9E6EF"/>
<stop offset="0.8419" stop-color="#C4D2DC"/>
<stop offset="1" stop-color="#B6C4CF"/>
</linearGradient>
<linearGradient id="paint41_linear_1144_6433" x1="32.6374" y1="18.8651" x2="19.6646" y2="16.7601" gradientUnits="userSpaceOnUse">
<stop stop-color="#EAF6FF"/>
<stop offset="0.2729" stop-color="#E5F1FB"/>
<stop offset="0.5557" stop-color="#D9E6EF"/>
<stop offset="0.8419" stop-color="#C4D2DC"/>
<stop offset="1" stop-color="#B6C4CF"/>
</linearGradient>
<linearGradient id="paint42_linear_1144_6433" x1="27.9984" y1="21.8912" x2="27.9984" y2="23.9658" gradientUnits="userSpaceOnUse">
<stop stop-color="#596C76" stop-opacity="0"/>
<stop offset="0.179" stop-color="#596C76" stop-opacity="0.035"/>
<stop offset="0.3646" stop-color="#596C76" stop-opacity="0.141"/>
<stop offset="0.5532" stop-color="#596C76" stop-opacity="0.316"/>
<stop offset="0.7438" stop-color="#596C76" stop-opacity="0.563"/>
<stop offset="0.9342" stop-color="#596C76" stop-opacity="0.876"/>
<stop offset="1" stop-color="#596C76"/>
</linearGradient>
<linearGradient id="paint43_linear_1144_6433" x1="32.155" y1="18.1216" x2="34.7789" y2="18.1216" gradientUnits="userSpaceOnUse">
<stop stop-color="#596C76" stop-opacity="0"/>
<stop offset="0.179" stop-color="#596C76" stop-opacity="0.035"/>
<stop offset="0.3646" stop-color="#596C76" stop-opacity="0.141"/>
<stop offset="0.5532" stop-color="#596C76" stop-opacity="0.316"/>
<stop offset="0.7438" stop-color="#596C76" stop-opacity="0.563"/>
<stop offset="0.9342" stop-color="#596C76" stop-opacity="0.876"/>
<stop offset="1" stop-color="#596C76"/>
</linearGradient>
<linearGradient id="paint44_linear_1144_6433" x1="26.1674" y1="16.5731" x2="29.1699" y2="18.8249" gradientUnits="userSpaceOnUse">
<stop stop-color="#5A5A5A"/>
<stop offset="0.4248" stop-color="#555555"/>
<stop offset="0.8643" stop-color="#494949"/>
<stop offset="1" stop-color="#444444"/>
</linearGradient>
<linearGradient id="paint45_linear_1144_6433" x1="28.9443" y1="17.5007" x2="26.1539" y2="19.0427" gradientUnits="userSpaceOnUse">
<stop stop-color="#464646" stop-opacity="0"/>
<stop offset="0.6727" stop-color="#252529" stop-opacity="0.463"/>
<stop offset="1" stop-color="#000009"/>
</linearGradient>
<linearGradient id="paint46_linear_1144_6433" x1="30.2433" y1="18.6947" x2="25.3723" y2="17.3974" gradientUnits="userSpaceOnUse">
<stop stop-color="#464646" stop-opacity="0"/>
<stop offset="0.6727" stop-color="#252529" stop-opacity="0.463"/>
<stop offset="1" stop-color="#000009"/>
</linearGradient>
<linearGradient id="paint47_linear_1144_6433" x1="29.4732" y1="19.4757" x2="26.1443" y2="15.5594" gradientUnits="userSpaceOnUse">
<stop stop-color="#464646" stop-opacity="0"/>
<stop offset="0.6727" stop-color="#252529" stop-opacity="0.463"/>
<stop offset="1" stop-color="#000009"/>
</linearGradient>
<linearGradient id="paint48_linear_1144_6433" x1="28.0016" y1="52.4556" x2="28.0016" y2="54.7947" gradientUnits="userSpaceOnUse">
<stop stop-color="#5A5A5A"/>
<stop offset="0.4248" stop-color="#555555"/>
<stop offset="0.8643" stop-color="#494949"/>
<stop offset="1" stop-color="#444444"/>
</linearGradient>
<clipPath id="clip0_1144_6433">
<rect width="56" height="56" fill="white"/>
</clipPath>
</defs>
</svg>
